<svg width="19" height="19" viewBox="0 0 19 19" fill="none" xmlns="http://www.w3.org/2000/svg">
<path d="M18.7253 17.1497C18.8124 17.2368 18.8815 17.3403 18.9287 17.4541C18.9758 17.5679 19.0001 17.6898 19.0001 17.813C19.0001 17.9362 18.9758 18.0582 18.9287 18.172C18.8815 18.2858 18.8124 18.3892 18.7253 18.4763C18.6382 18.5634 18.5348 18.6325 18.421 18.6796C18.3072 18.7268 18.1852 18.751 18.062 18.751C17.9389 18.751 17.8169 18.7268 17.7031 18.6796C17.5893 18.6325 17.4859 18.5634 17.3988 18.4763L9.62455 10.7009L1.85033 18.4763C1.67441 18.6522 1.43582 18.751 1.18704 18.751C0.938266 18.751 0.699677 18.6522 0.523763 18.4763C0.34785 18.3004 0.249023 18.0618 0.249023 17.813C0.249023 17.5642 0.34785 17.3257 0.523763 17.1497L8.29916 9.37552L0.523763 1.6013C0.34785 1.42539 0.249023 1.1868 0.249023 0.938021C0.249023 0.689243 0.34785 0.450653 0.523763 0.27474C0.699677 0.0988269 0.938266 1.85355e-09 1.18704 0C1.43582 -1.85355e-09 1.67441 0.0988269 1.85033 0.27474L9.62455 8.05013L17.3988 0.27474C17.5747 0.0988269 17.8133 -4.90402e-09 18.062 0C18.3108 4.90402e-09 18.5494 0.0988269 18.7253 0.27474C18.9012 0.450653 19.0001 0.689243 19.0001 0.938021C19.0001 1.1868 18.9012 1.42539 18.7253 1.6013L10.9499 9.37552L18.7253 17.1497Z" fill="#009D92"/>
</svg>
