<svg width="25" height="25" viewBox="0 0 25 25" fill="none" xmlns="http://www.w3.org/2000/svg">
<path d="M19.55 5.41C18.6332 4.48392 17.5412 3.74967 16.3377 3.25005C15.1341 2.75043 13.8432 2.49546 12.54 2.5C7.08005 2.5 2.63005 6.95 2.63005 12.41C2.63005 14.16 3.09005 15.86 3.95005 17.36L2.55005 22.5L7.80005 21.12C9.25005 21.91 10.88 22.33 12.54 22.33C18 22.33 22.4501 17.88 22.4501 12.42C22.4501 9.77 21.42 7.28 19.55 5.41ZM12.54 20.65C11.06 20.65 9.61005 20.25 8.34005 19.5L8.04005 19.32L4.92005 20.14L5.75005 17.1L5.55005 16.79C4.7278 15.477 4.29119 13.9592 4.29005 12.41C4.29005 7.87 7.99005 4.17 12.53 4.17C14.73 4.17 16.8 5.03 18.35 6.59C19.1175 7.35396 19.7257 8.26266 20.1394 9.26342C20.5531 10.2642 20.7641 11.3371 20.76 12.42C20.7801 16.96 17.08 20.65 12.54 20.65ZM17.06 14.49C16.81 14.37 15.59 13.77 15.37 13.68C15.14 13.6 14.98 13.56 14.81 13.8C14.64 14.05 14.17 14.61 14.03 14.77C13.89 14.94 13.74 14.96 13.49 14.83C13.24 14.71 12.44 14.44 11.5 13.6C10.76 12.94 10.27 12.13 10.12 11.88C9.98005 11.63 10.1 11.5 10.23 11.37C10.34 11.26 10.48 11.08 10.6 10.94C10.72 10.8 10.77 10.69 10.85 10.53C10.93 10.36 10.89 10.22 10.83 10.1C10.77 9.98 10.27 8.76 10.07 8.26C9.87005 7.78 9.66005 7.84 9.51005 7.83H9.03005C8.86005 7.83 8.60005 7.89 8.37005 8.14C8.15005 8.39 7.51005 8.99 7.51005 10.21C7.51005 11.43 8.40005 12.61 8.52005 12.77C8.64005 12.94 10.27 15.44 12.75 16.51C13.34 16.77 13.8 16.92 14.16 17.03C14.75 17.22 15.29 17.19 15.72 17.13C16.2 17.06 17.19 16.53 17.39 15.95C17.6 15.37 17.6 14.88 17.53 14.77C17.46 14.66 17.31 14.61 17.06 14.49Z" fill="white"/>
</svg>
